<svg version="1.1" id="Layer_1" xmlns="http://www.w3.org/2000/svg" xmlns:xlink="http://www.w3.org/1999/xlink" x="0px" y="0px"
	 width="100%" viewBox="0 0 544 214" enable-background="new 0 0 544 214" xml:space="preserve">
<path fill="#FBFBFB" opacity="1.000000" stroke="none" 
	d="
M411.000000,215.000000 
	C274.000000,215.000000 137.500000,215.000000 1.000000,215.000000 
	C1.000000,143.666672 1.000000,72.333336 1.000000,1.000000 
	C182.333328,1.000000 363.666656,1.000000 545.000000,1.000000 
	C545.000000,72.333336 545.000000,143.666672 545.000000,215.000000 
	C500.500000,215.000000 456.000000,215.000000 411.000000,215.000000 
M223.136765,92.365356 
	C229.914780,82.778664 228.505600,79.222511 216.385254,75.327438 
	C209.685867,84.004379 209.553726,85.290977 214.967346,89.984909 
	C214.964417,90.720856 214.961502,91.456810 214.209015,92.070435 
	C211.757126,92.921600 206.949646,99.721642 207.434662,101.856659 
	C207.601746,102.592125 208.182037,103.389603 208.804337,103.839523 
	C211.965546,106.125031 215.202530,108.305717 218.693756,110.717056 
	C220.513641,107.731285 222.018234,105.262810 223.656387,102.575211 
	C227.215805,104.949753 230.465515,107.117668 233.627243,109.226891 
	C241.621674,100.672951 241.040741,96.850502 231.465683,91.959877 
	C229.159439,90.781921 227.357956,90.044197 226.079330,93.470428 
	C225.544189,94.904427 223.426147,95.747704 222.077545,96.194733 
	C222.393936,95.149612 222.710327,94.104500 223.136765,92.365356 
M326.592560,169.709473 
	C325.716309,170.703751 324.981262,171.889862 323.938293,172.657593 
	C320.301575,175.334488 315.887970,177.285843 313.019989,180.596191 
	C309.166321,185.044235 311.376648,189.406540 317.319366,189.840134 
	C326.027924,190.475510 333.678040,187.546432 340.207367,181.799286 
	C340.858948,181.225754 340.960510,180.027390 341.581421,178.446838 
	C332.720734,181.468338 324.803345,185.074539 314.341980,182.707397 
	C320.921265,179.015274 326.184143,175.735046 328.037811,169.921448 
	C330.321930,170.271408 332.602722,170.645126 334.890900,170.966019 
	C338.739532,171.505814 340.810577,169.997040 341.280426,165.955429 
	C341.950806,160.188553 339.101654,156.418488 334.692810,153.510254 
	C327.810883,148.970734 325.168182,150.063309 323.417236,157.954269 
	C323.238251,158.760818 323.034760,159.567352 322.766449,160.347702 
	C321.458099,164.153168 322.253326,167.137817 326.592560,169.709473 
M150.629105,161.740845 
	C150.392365,161.110367 150.155624,160.479874 149.980957,159.079742 
	C149.714142,157.698105 149.447327,156.316452 149.180527,154.934814 
	C147.654938,155.299179 145.868591,155.274582 144.647507,156.093185 
	C138.337524,160.323380 137.518677,165.012299 141.705276,170.697327 
	C140.704147,173.069656 139.136871,175.305145 138.935104,177.657761 
	C138.712341,180.255234 138.863937,183.728668 140.391403,185.472916 
	C144.834579,190.546707 158.554352,186.107071 160.238602,179.815094 
	C155.518799,180.311264 150.620590,181.314087 145.750824,181.191086 
	C141.492142,181.083527 140.736603,179.031357 143.454880,175.779739 
	C145.780441,172.997894 148.697601,170.712952 151.331833,168.186050 
	C153.666611,165.946411 155.701675,163.594086 153.848679,159.713547 
	C152.836334,160.632431 152.017746,161.375443 150.629105,161.740845 
M167.825699,111.597595 
	C155.909988,107.147141 144.025146,107.562836 132.177673,111.857437 
	C125.893753,114.135315 122.307228,119.651718 122.842163,126.689819 
	C130.868484,122.627808 136.468719,126.557823 141.697403,132.139099 
	C136.240204,136.519684 130.189499,138.788147 124.202858,138.798065 
	C117.308380,138.809494 113.705154,135.458466 113.305740,128.690094 
	C113.232330,127.446236 113.078552,126.207123 112.965103,125.000160 
	C112.038116,125.000160 111.484894,124.858284 111.054718,125.028099 
	C109.981323,125.451843 108.955444,126.000809 107.925209,126.528267 
	C93.485542,133.920959 78.614113,140.061081 62.260422,141.579086 
	C51.899780,142.540802 41.564281,142.573441 31.953651,137.711044 
	C18.259804,130.782761 19.188097,118.429649 24.413322,107.897659 
	C24.841984,107.033638 26.070248,106.376282 27.068840,106.015137 
	C35.059048,103.125366 39.506588,94.447830 37.254906,85.249405 
	C36.599781,86.025841 36.112534,86.567207 35.665188,87.139740 
	C33.729595,89.616989 32.495281,94.563560 28.661533,92.475792 
	C26.205187,91.138130 25.451822,86.561668 24.109926,83.363716 
	C23.751900,82.510483 23.819254,81.330719 24.061728,80.397057 
	C25.933561,73.189476 27.887449,66.003105 29.835966,58.815601 
	C30.534842,56.237656 31.288862,53.674656 32.017719,51.104836 
	C30.402479,51.112247 29.610359,51.510799 29.350136,52.132118 
	C25.766296,60.689156 21.618223,69.081825 18.915854,77.914780 
	C16.472206,85.902061 16.079294,94.287987 20.463961,102.208420 
	C21.148998,103.445862 20.432800,105.639587 19.987249,107.289223 
	C18.519985,112.721718 16.224861,118.013588 15.434397,123.529533 
	C13.468332,137.248962 21.342293,149.176239 34.596203,152.919159 
	C51.901512,157.806213 68.610222,154.529663 84.879211,148.209747 
	C92.680344,145.179276 100.224213,141.486542 107.896278,138.088577 
	C111.805687,148.716782 115.986977,152.594910 123.878342,151.647125 
	C128.407013,151.103241 132.941711,149.480240 137.137268,147.594513 
	C141.774780,145.510117 146.027817,142.570328 150.467880,139.991730 
	C156.749176,145.536331 163.210342,150.413681 171.779922,151.358932 
	C180.851334,152.359512 187.007843,147.228073 192.741241,140.914734 
	C197.344482,157.527954 212.070999,156.421478 221.572174,143.306168 
	C228.258743,155.999695 236.935959,155.566528 245.553787,141.969589 
	C246.057831,142.694748 246.577744,143.334900 246.981842,144.041306 
	C250.031235,149.371933 254.739761,151.726822 260.726562,151.344894 
	C266.938202,150.948624 270.551514,147.094650 272.835724,141.621979 
	C276.920807,131.834747 277.619690,121.585197 276.657288,111.226067 
	C275.410187,97.803238 273.721741,84.421928 272.299103,71.014694 
	C271.491272,63.401638 270.834930,55.772507 270.052917,47.546246 
	C272.223206,49.182301 273.734497,50.321579 275.245789,51.460854 
	C274.046143,39.952934 269.224487,30.131441 263.959412,19.182310 
	C261.257843,26.098293 258.776154,30.947548 260.424683,37.868816 
	C262.791382,47.805183 262.578461,58.346008 263.594421,68.616165 
	C265.610321,88.995071 267.634064,109.373978 269.842987,129.732437 
	C270.323700,134.162903 268.807861,136.814423 264.605438,137.855453 
	C255.668930,140.069260 249.980957,135.571152 249.999405,126.440147 
	C250.000946,125.673409 249.790680,124.906250 249.477325,122.757896 
	C247.556320,124.552338 246.098862,125.441208 245.322021,126.737839 
	C243.703903,129.438736 242.607468,132.451309 240.999680,135.159485 
	C238.903961,138.689484 235.723434,140.456924 231.715973,138.702881 
	C227.978485,137.067032 226.966187,133.919937 228.043991,129.968750 
	C228.525192,128.204681 228.573166,126.322441 228.817764,124.493835 
	C228.325485,124.216217 227.833206,123.938591 227.340927,123.660973 
	C225.982819,125.060898 224.556244,126.401443 223.280273,127.872597 
	C220.255737,131.359818 217.649902,135.304153 214.219864,138.318420 
	C210.996796,141.150787 206.769226,141.083511 202.974899,138.906723 
	C199.257202,136.773880 198.551437,133.393066 199.527145,129.389343 
	C199.755981,128.450287 199.241272,127.330055 198.812164,124.752563 
	C187.546982,134.120575 177.129745,144.926773 161.518311,133.868668 
	C165.213882,132.089294 168.155121,130.537460 171.203491,129.236755 
	C175.926727,127.221390 176.994354,122.625481 177.455170,118.602829 
	C177.638702,117.000809 173.537094,114.844986 171.290009,113.062653 
	C170.535568,112.464226 169.483017,112.241638 167.825699,111.597595 
M372.048035,132.615250 
	C361.014954,141.967255 350.787994,140.051926 343.834595,127.340126 
	C342.717194,125.297386 341.701569,123.178894 340.389404,121.266655 
	C336.815186,116.057899 331.931702,114.690063 327.243866,118.858009 
	C322.382874,123.179962 318.100250,128.421951 314.591949,133.917374 
	C311.320038,139.042496 309.517212,145.087234 306.836761,150.615173 
	C305.214783,153.960205 303.055847,157.262695 298.728882,156.989197 
	C294.210907,156.703644 291.904816,153.026581 291.205078,149.356216 
	C289.911224,142.569580 289.547485,135.599579 288.925201,128.694336 
	C288.714111,126.351982 288.891754,123.974602 288.891754,121.559761 
	C287.893799,121.694237 287.513672,121.642700 287.271240,121.801453 
	C286.876007,122.060265 286.351990,122.405151 286.259125,122.801941 
	C283.099243,136.300125 282.664062,149.641434 290.419678,161.848450 
	C295.705902,170.168777 305.364197,169.494446 309.888214,160.699493 
	C312.846375,154.948639 315.037109,148.798706 318.068298,143.091293 
	C320.060364,139.340378 322.533966,135.658707 325.511475,132.660660 
	C330.166931,127.973091 333.787781,128.870392 336.788300,134.595215 
	C338.247681,137.379623 339.742310,140.184586 341.568817,142.730713 
	C349.135223,153.278198 361.997406,154.459427 371.336609,145.502548 
	C373.307281,143.612549 374.993683,141.426178 376.678284,139.526108 
	C379.046692,142.699997 382.005310,145.433411 383.334320,148.808487 
	C384.549194,151.893799 384.001038,155.673325 384.334625,160.738586 
	C386.493225,157.145813 387.874664,154.846542 388.949707,153.057236 
	C415.780914,157.971375 440.772003,156.060059 463.197021,139.421478 
	C463.924011,141.159470 464.475220,143.102982 465.479492,144.774277 
	C471.066986,154.073227 484.285645,153.633545 491.407318,143.777679 
	C493.772034,140.505051 495.466644,136.748230 497.227600,133.636841 
	C503.089661,136.294266 508.541992,139.123459 514.255554,141.251221 
	C519.520081,143.211761 522.343201,141.578232 524.307922,136.289963 
	C526.963196,129.142975 526.911255,121.941895 524.217590,114.832703 
	C520.294189,104.477951 512.153198,102.644402 504.789856,110.974602 
	C500.436646,115.899445 497.432343,121.993637 493.544891,127.361694 
	C491.163086,130.650604 488.770874,134.350616 485.485748,136.483490 
	C477.540497,141.641861 469.590942,137.347977 468.668671,127.976715 
	C468.545197,126.721909 468.335663,125.475578 467.979004,122.847458 
	C459.669983,130.934906 451.619995,137.717682 441.324646,138.861008 
	C443.282013,134.645859 446.042328,130.556076 447.081116,126.067863 
	C449.074402,117.455338 444.401306,111.459244 437.568878,106.895233 
	C429.921387,101.786789 421.860962,101.798386 414.742065,107.140831 
	C409.392090,111.155785 404.808533,116.406898 400.616394,121.689117 
	C396.446106,126.943840 393.190247,132.924240 389.554993,138.552994 
	C383.217163,135.638809 382.496155,130.014160 382.322357,122.507172 
	C378.293884,126.468735 375.426849,129.288147 372.048035,132.615250 
M368.014160,79.484306 
	C378.744263,75.031151 389.348877,70.240723 400.229187,66.191193 
	C427.463806,56.054802 454.797729,46.182724 482.157074,36.386772 
	C486.930847,34.677525 488.624115,31.539223 489.107880,26.418228 
	C476.876465,30.683941 465.203186,34.523281 453.698090,38.813644 
	C426.317902,49.024014 398.962891,59.308144 371.736908,69.919662 
	C367.090881,71.730499 362.405548,74.627708 359.028076,78.231705 
	C353.786774,83.824532 355.213501,91.048721 361.400909,94.052048 
	C362.995575,94.826103 366.349762,95.129875 366.901093,94.309410 
	C368.578583,91.812950 368.388062,88.911713 365.161316,87.158081 
	C363.507660,86.259338 361.882080,85.308884 359.451996,83.933708 
	C362.706146,82.238205 365.021393,81.031883 368.014160,79.484306 
M290.912537,89.815147 
	C292.611481,109.518150 294.310425,129.221161 296.098633,149.959381 
	C297.286682,147.614716 298.621002,146.020523 298.896515,144.260590 
	C300.198395,135.944305 302.293060,127.554260 302.074860,119.243813 
	C301.739807,106.483414 299.791412,93.761551 298.437714,81.032898 
	C297.288879,70.230621 296.012787,59.441883 294.704193,47.861153 
	C297.085083,49.573349 298.591766,50.656849 301.303253,52.606777 
	C299.128571,40.291302 294.008881,30.717691 289.322510,20.427805 
	C284.395233,27.585436 284.796875,34.365791 285.869141,41.817753 
	C288.115234,57.427532 289.251465,73.197014 290.912537,89.815147 
M74.286011,61.202099 
	C72.305092,59.748386 70.324165,58.294674 68.228813,56.756985 
	C69.977631,49.920525 71.660271,43.010902 73.537415,36.154537 
	C74.386276,33.054043 76.288750,32.512012 78.536316,34.966827 
	C79.272415,35.770805 79.566765,36.979240 80.063133,38.002716 
	C81.922447,35.644421 82.680954,34.317532 82.858200,32.917068 
	C83.343994,29.078968 82.102257,25.379545 78.256035,24.672926 
	C76.431747,24.337772 73.456024,26.831493 72.011345,28.788700 
	C70.411240,30.956476 69.850883,33.941677 69.047417,36.633492 
	C68.243118,39.328056 67.697731,42.099895 67.090729,44.622311 
	C64.496353,40.132889 62.363682,35.588428 59.379360,31.697117 
	C58.179913,30.133133 54.403191,28.756771 53.062626,29.518377 
	C51.155701,30.601749 49.221737,33.908531 49.517239,35.943310 
	C49.799007,37.883575 53.066196,40.982555 54.772682,40.828159 
	C60.110439,40.345226 60.154289,44.490601 61.366463,47.287296 
	C62.787086,50.564934 65.111511,55.019081 63.941299,57.498684 
	C61.989273,61.634907 61.027164,65.755005 59.687286,69.972023 
	C57.656837,76.362480 58.068092,82.166191 59.319431,88.297272 
	C60.781071,95.458740 62.410049,102.592514 63.616386,109.796921 
	C64.219910,113.401237 64.045212,117.135872 64.222496,120.811562 
	C65.599182,120.075005 66.031204,119.283836 66.206970,118.439331 
	C68.746223,106.239281 65.814957,94.583534 62.144279,83.152702 
	C60.693886,78.636040 62.254208,76.569412 65.935623,75.090797 
	C67.611183,74.417809 69.408012,73.892723 71.194672,73.683617 
	C74.535706,73.292603 77.369011,71.803261 77.525291,68.460800 
	C77.628227,66.259514 75.800453,63.967937 74.286011,61.202099 
M219.496262,27.065996 
	C202.727570,33.452274 185.968536,39.864090 169.183350,46.206707 
	C165.033295,47.774891 163.636932,50.720581 163.886856,55.150925 
	C164.960754,54.923717 165.629379,54.871391 166.230591,54.642200 
	C189.512375,45.766663 212.785339,36.867970 236.067154,27.992491 
	C239.817535,26.562775 240.907379,23.594673 241.397751,19.227472 
	C233.921021,21.913065 227.079956,24.370329 219.496262,27.065996 
M513.607544,43.205593 
	C496.678711,49.661987 479.773865,56.182468 462.804382,62.530193 
	C458.506989,64.137711 456.848022,67.180405 456.206787,71.842674 
	C457.304535,71.485367 457.893097,71.321747 458.461304,71.104797 
	C478.950500,63.281784 499.389435,55.322857 519.963989,47.731411 
	C524.340515,46.116600 525.586121,43.365887 525.992981,38.780899 
	C521.770264,40.293331 518.061157,41.621796 513.607544,43.205593 
M319.793732,50.369316 
	C314.978058,53.398903 310.162354,56.428486 305.346649,59.458073 
	C319.407318,59.087910 329.404205,51.251312 338.588776,41.712528 
	C340.035339,42.702141 341.332794,43.589745 342.862000,44.635910 
	C344.621216,41.323269 347.723328,38.475430 343.098877,35.104980 
	C342.380829,34.581646 342.366699,32.795437 342.402374,31.604454 
	C342.456329,29.800617 343.313141,27.907700 342.963348,26.233484 
	C342.524994,24.135729 341.688660,21.405052 340.122345,20.488247 
	C338.894745,19.769697 335.967834,20.928499 334.362854,22.058537 
	C327.495117,26.894047 327.531097,31.814114 334.585449,40.014362 
	C329.828094,43.353794 325.113525,46.663181 319.793732,50.369316 
M412.240173,170.019241 
	C408.445557,171.507889 404.027191,172.213852 400.980927,174.641541 
	C393.737640,180.414032 387.141083,186.998459 380.309509,193.283401 
	C380.198059,193.385941 380.419769,193.850601 380.572784,194.533371 
	C381.813171,194.195236 383.245758,194.167389 384.207550,193.480408 
	C388.632050,190.320114 393.138336,187.218292 397.211975,183.636810 
	C402.415649,179.061890 407.309631,175.507614 415.005249,178.327972 
	C421.539520,180.722702 431.637451,175.568451 434.130280,169.156616 
	C434.893372,167.193863 434.764008,163.744644 433.516113,162.462296 
	C432.286285,161.198456 428.641357,160.902191 426.910583,161.810211 
	C423.775421,163.455048 421.421417,166.522522 418.447754,168.569687 
	C416.981262,169.579239 414.859802,169.637405 412.240173,170.019241 
M401.167145,23.248545 
	C397.354248,20.458158 394.658661,22.409637 393.246765,25.807671 
	C390.911682,31.427490 389.191467,37.302795 387.571686,42.022797 
	C385.221954,38.085686 382.730072,33.269966 379.557190,28.955013 
	C378.502502,27.520678 374.563049,26.215611 373.912720,26.855122 
	C372.075287,28.661951 370.171906,31.608566 370.386627,33.910992 
	C370.556335,35.731174 373.985626,38.791759 375.680420,38.611000 
	C379.466858,38.207157 380.230957,40.320377 381.144440,42.737946 
	C382.931122,47.466221 384.574768,52.248566 386.277588,57.008530 
	C386.758972,57.091545 387.240356,57.174557 387.721741,57.257568 
	C390.324982,48.363651 392.928192,39.469730 395.820282,29.588903 
	C398.655975,32.120998 400.175751,33.478058 401.838013,34.962353 
	C404.541962,30.958305 404.622131,27.354034 401.167145,23.248545 
M507.107605,77.377586 
	C505.162415,74.146698 503.594574,70.577370 501.121521,67.819908 
	C499.774719,66.318237 496.107758,64.957924 494.882019,65.734726 
	C492.970245,66.946304 491.059418,70.203598 491.363617,72.267509 
	C491.643372,74.165627 494.969208,77.125237 496.738373,76.981110 
	C500.500244,76.674644 501.361816,78.797928 502.320587,81.189957 
	C504.179169,85.827187 505.834259,90.545990 507.923309,96.172722 
	C509.019196,94.221870 509.882019,93.203468 510.197083,92.037094 
	C511.705872,86.451973 513.032227,80.817932 514.488281,75.218124 
	C516.174072,68.734680 517.527893,68.348869 522.188049,72.895927 
	C522.370911,73.074310 522.790527,73.010048 523.092590,73.057716 
	C525.902649,68.040596 525.081909,62.743439 521.245911,61.054859 
	C517.839600,59.555405 515.297913,61.291199 513.020142,67.475716 
	C511.330902,72.062309 510.239777,76.869202 508.735931,82.085449 
	C508.146942,80.457832 507.722656,79.285431 507.107605,77.377586 
M335.160034,81.410583 
	C332.933197,83.661812 330.706360,85.913048 328.566010,88.076851 
	C325.199890,85.904495 321.803558,83.712639 318.070099,81.303215 
	C316.229401,84.692970 314.563385,87.205200 313.517456,89.953430 
	C313.082947,91.095177 313.482330,93.325874 314.348480,94.051384 
	C317.364532,96.577637 320.750763,98.661949 324.329773,101.145729 
	C326.064026,98.197235 327.600464,95.585114 329.144379,92.960251 
	C332.963379,95.426117 336.374969,97.628922 339.757477,99.812935 
	C347.317169,88.659203 347.317505,88.658676 336.697327,82.193329 
	C336.414642,82.021233 336.106995,81.890167 335.160034,81.410583 
M127.781898,46.955662 
	C136.319931,45.699039 142.975601,41.736359 147.381760,34.049171 
	C150.624298,28.392080 150.255264,26.736296 144.027588,25.576019 
	C140.141571,24.852018 136.096252,24.380615 132.170364,24.611362 
	C125.952057,24.976847 123.141800,28.297382 122.501427,35.524860 
	C128.057571,35.524860 133.564087,35.524860 139.070602,35.524860 
	C139.147842,35.906788 139.225082,36.288719 139.302322,36.670647 
	C133.862625,39.860298 128.422913,43.049950 122.983215,46.239597 
	C123.092155,46.513515 123.201096,46.787434 123.310043,47.061352 
	C124.549614,47.061352 125.789192,47.061352 127.781898,46.955662 
M137.252060,94.406296 
	C148.424637,94.206329 157.027481,89.770088 162.028183,79.386436 
	C163.691208,75.933258 163.771576,73.271255 158.980667,72.706467 
	C155.523376,72.298912 152.099976,71.418388 148.638824,71.267151 
	C141.224319,70.943176 137.721695,74.072182 136.096573,82.689705 
	C141.795044,82.689705 147.343750,82.689705 152.892471,82.689705 
	C152.900238,83.026016 152.908005,83.362328 152.915771,83.698639 
	C147.645355,87.023689 142.374939,90.348740 137.252060,94.406296 
M238.373322,166.354767 
	C236.852280,164.986572 235.331238,163.618378 233.522354,161.991257 
	C232.791183,162.914932 231.917419,164.618607 230.532440,165.602982 
	C229.091995,166.626724 226.869812,167.872452 225.486267,167.438217 
	C216.998627,164.774200 210.620438,168.075455 204.822891,173.810150 
	C201.169739,177.423691 197.405350,180.926468 193.638733,184.422806 
	C191.802475,186.127319 189.847031,187.703400 187.007843,190.143524 
	C189.221588,189.955627 190.198853,190.168915 190.751266,189.779480 
	C195.672424,186.310318 200.718842,182.974091 205.326828,179.118759 
	C209.414536,175.698715 213.559860,172.515030 219.090988,173.509018 
	C223.583298,174.316330 227.829910,175.680710 231.624466,171.865372 
	C231.950531,171.537491 232.894028,171.482788 233.368942,171.699509 
	C236.294861,173.034698 239.367325,173.085388 240.741699,170.072250 
	C242.020325,167.269012 242.003662,163.874939 242.557236,160.740982 
	C241.856964,160.605759 241.156708,160.470535 240.456436,160.335312 
	C239.921707,162.115082 239.386978,163.894852 238.373322,166.354767 
M512.958496,166.479660 
	C515.180359,167.032883 517.510132,169.245514 519.414551,165.855576 
	C521.479858,162.179169 520.807312,155.210403 517.857361,153.948456 
	C513.422852,152.051407 511.810303,155.977982 509.642548,158.534897 
	C509.001282,159.291275 508.633728,160.310745 507.918671,160.968170 
	C504.546692,164.068573 501.422058,167.602066 497.595703,170.003586 
	C492.559967,173.164108 486.951080,175.411545 481.588165,178.050613 
	C478.726501,179.458847 475.863800,180.865005 473.001556,182.272095 
	C473.201019,182.662628 473.400452,183.053177 473.599884,183.443710 
	C488.225098,182.531601 501.116486,178.117111 509.461365,164.674423 
	C510.508270,165.233398 511.387573,165.702866 512.958496,166.479660 
M214.579666,47.250290 
	C214.728058,50.025169 215.256592,52.852692 214.882324,55.555187 
	C214.657715,57.176964 213.023682,58.603546 212.023102,60.117859 
	C211.088913,58.635399 209.599380,57.242172 209.343674,55.650688 
	C208.900269,52.891159 209.220535,50.008926 209.220535,47.178150 
	C208.579971,46.994431 207.939407,46.810715 207.298843,46.626995 
	C206.217606,48.422676 204.164001,50.271534 204.258698,52.002903 
	C204.452316,55.543411 205.678772,59.056866 206.703842,62.515076 
	C208.008011,66.914932 211.785919,67.857277 215.015900,64.686302 
	C215.795151,63.921288 216.426682,63.005779 216.499298,62.917919 
	C219.058884,63.861069 221.782913,65.768402 222.906799,65.076515 
	C224.801910,63.909843 226.820389,61.063229 226.761917,58.979977 
	C226.623840,54.060329 225.294250,49.174118 224.446533,44.274387 
	C219.790863,48.428635 220.990097,52.417484 223.205276,56.376854 
	C221.115662,57.955971 219.460236,59.012417 218.932434,55.236252 
	C218.528931,52.349388 217.794312,49.502697 217.041626,46.682262 
	C216.980774,46.454262 215.638657,46.568180 214.579666,47.250290 
M399.735687,96.959885 
	C402.103455,97.784393 406.055878,99.851166 406.556854,99.212166 
	C408.437836,96.812805 410.203308,93.503151 410.124329,90.585716 
	C410.015167,86.555206 408.197754,82.570961 406.897583,77.776184 
	C402.164734,83.625313 407.430298,88.653946 406.491974,94.230423 
	C399.580750,90.841080 403.696350,82.894081 398.064178,78.427490 
	C398.064178,82.412056 398.109283,85.431694 398.049896,88.449287 
	C398.002502,90.856430 398.667419,94.136879 394.980133,93.920166 
	C393.947418,93.859482 392.664703,90.704552 392.281799,88.810287 
	C391.813141,86.491638 392.170166,84.006104 392.170166,81.592728 
	C391.608063,81.369293 391.045959,81.145859 390.483826,80.922424 
	C389.346863,82.807373 387.313446,84.678162 387.283386,86.580605 
	C387.238495,89.421890 388.358948,92.384056 389.451813,95.106888 
	C390.256989,97.112877 391.601440,100.090576 393.083344,100.333817 
	C394.905762,100.632957 397.120972,98.539139 399.735687,96.959885 
M64.517326,182.914536 
	C66.082062,184.001953 67.646797,185.089371 69.167999,186.146545 
	C77.606628,175.705978 76.188560,171.562042 62.825329,167.108856 
	C61.680504,169.148163 60.645809,171.374863 59.265995,173.361893 
	C57.035725,176.573624 57.830593,178.775269 61.095058,180.511108 
	C62.107777,181.049606 63.003471,181.808212 64.517326,182.914536 
M468.696045,93.900597 
	C465.989349,92.154549 463.282623,90.408501 460.310730,88.491379 
	C458.546265,91.830185 456.859406,94.488083 455.760559,97.370186 
	C455.334595,98.487411 455.761566,100.694435 456.623016,101.399765 
	C459.646637,103.875359 463.028290,105.913628 466.663208,108.382225 
	C468.104095,105.772621 469.155060,103.346718 470.667786,101.254684 
	C472.813812,98.286804 472.176117,96.123268 468.696045,93.900597 
M104.284691,158.807312 
	C103.380135,160.764099 101.956436,162.648041 101.669762,164.691513 
	C100.856583,170.487946 99.803452,176.401184 100.225731,182.167313 
	C100.504959,185.980225 105.054512,187.343155 107.378807,184.891556 
	C110.116837,182.003586 111.260834,178.372299 110.347481,173.524231 
	C109.408005,174.572784 109.059967,175.082993 108.598740,175.451523 
	C107.525162,176.309372 106.397026,177.098953 105.291008,177.916199 
	C104.578506,176.505981 103.205864,175.057388 103.285149,173.693176 
	C103.474747,170.430817 104.199745,167.171341 104.991585,163.980942 
	C105.643967,161.352417 106.702667,158.824722 107.581299,156.252335 
	C107.265610,156.093979 106.949928,155.935608 106.634239,155.777252 
	C105.978874,156.580521 105.323509,157.383789 104.284691,158.807312 
M361.393280,172.966064 
	C361.745056,176.379532 361.591461,179.949844 362.588715,183.162994 
	C363.614807,186.469177 367.582184,187.111908 369.748505,184.520950 
	C372.165436,181.630188 373.631653,178.247330 372.359894,174.630722 
	C370.435883,175.780777 368.767914,176.777786 367.099976,177.774796 
	C366.436859,175.672638 365.082031,173.506653 365.268799,171.482956 
	C365.566681,168.255524 366.895050,165.124069 367.778290,161.949432 
	C368.303009,160.063431 368.809845,158.172440 369.324707,156.283691 
	C368.676819,156.081085 368.028931,155.878494 367.381042,155.675888 
	C365.453461,161.161209 363.525848,166.646545 361.393280,172.966064 
M104.907288,107.463013 
	C106.037384,104.191124 107.167473,100.919228 108.297562,97.647339 
	C107.837601,97.512413 107.377632,97.377495 106.917664,97.242569 
	C105.680298,98.598938 104.442924,99.955307 102.729401,101.833626 
	C96.613068,93.080429 103.777214,85.917938 103.766006,78.346878 
	C98.810219,86.400871 94.426743,94.584274 96.976006,104.479683 
	C97.959671,108.297951 100.234413,110.261635 104.907288,107.463013 
M431.578583,91.113335 
	C437.194580,93.228500 440.829681,88.513008 439.785187,80.882484 
	C438.084534,81.833611 436.277161,82.844391 434.469818,83.855164 
	C433.844879,81.402306 432.608124,78.912788 432.752350,76.506020 
	C432.926392,73.601295 434.304016,70.775665 435.096893,67.898224 
	C435.523376,66.350418 435.816406,64.765831 436.169678,63.197838 
	C435.529419,63.021839 434.889160,62.845837 434.248901,62.669838 
	C432.521454,67.710876 430.034332,72.645271 429.306946,77.826691 
	C428.725250,81.970352 430.283844,86.414474 431.578583,91.113335 
M178.183899,82.083504 
	C178.460510,85.837776 178.216522,89.731186 179.171494,93.304138 
	C179.998138,96.396980 182.763062,97.737801 185.874481,95.608803 
	C188.813736,93.597588 189.919037,88.485146 188.716049,85.338776 
	C187.263077,86.402405 185.670578,87.568153 184.078094,88.733917 
	C183.279602,86.684998 182.020248,84.681099 181.814392,82.574272 
	C181.615097,80.534615 182.382568,78.357681 182.934525,76.297058 
	C183.856674,72.854362 184.945343,69.456276 185.963928,66.039406 
	C185.386856,65.837784 184.809784,65.636162 184.232727,65.434540 
	C182.309067,70.709564 180.385406,75.984596 178.183899,82.083504 
M265.899292,179.330475 
	C267.317566,175.533478 269.074554,171.814133 269.972656,167.897842 
	C270.292267,166.504181 268.858856,163.625565 267.633362,163.221619 
	C265.918396,162.656326 263.066376,163.135742 261.762390,164.328644 
	C260.079285,165.868423 259.444519,168.554169 257.976593,171.516800 
	C261.222870,170.697479 263.113892,170.220215 265.377533,169.648880 
	C265.480255,177.442993 258.459900,180.385239 256.155640,185.945984 
	C256.500763,186.300491 256.845917,186.654999 257.191040,187.009491 
	C259.938385,184.632629 262.685730,182.255753 265.899292,179.330475 
M453.211700,168.820053 
	C452.818237,170.770172 452.257996,172.703720 452.062286,174.673492 
	C451.446777,180.868713 453.918121,185.890549 457.510345,186.036026 
	C461.166351,186.184097 463.770142,181.635468 463.714020,175.128311 
	C463.712280,174.923279 463.317200,174.721649 462.229919,173.677933 
	C462.043854,174.269836 462.034088,175.132172 461.601166,175.511627 
	C460.579529,176.406967 459.356354,177.072372 458.214691,177.830780 
	C457.520477,176.581497 456.493439,175.400711 456.218536,174.065109 
	C455.893250,172.485031 456.134399,170.764008 456.280548,169.117432 
	C456.461029,167.084045 456.796417,165.064392 457.064819,163.038803 
	C456.571472,162.904373 456.078094,162.769928 455.584717,162.635483 
	C454.890076,164.440491 454.195435,166.245483 453.211700,168.820053 
z"/>
<path fill="#0A0A0A" opacity="1.000000" stroke="none" 
	d="
M168.196198,111.722427 
	C169.483017,112.241638 170.535568,112.464226 171.290009,113.062653 
	C173.537094,114.844986 177.638702,117.000809 177.455170,118.602829 
	C176.994354,122.625481 175.926727,127.221390 171.203491,129.236755 
	C168.155121,130.537460 165.213882,132.089294 161.518311,133.868668 
	C177.129745,144.926773 187.546982,134.120575 198.812164,124.752563 
	C199.241272,127.330055 199.755981,128.450287 199.527145,129.389343 
	C198.551437,133.393066 199.257202,136.773880 202.974899,138.906723 
	C206.769226,141.083511 210.996796,141.150787 214.219864,138.318420 
	C217.649902,135.304153 220.255737,131.359818 223.280273,127.872597 
	C224.556244,126.401443 225.982819,125.060898 227.340927,123.660973 
	C227.833206,123.938591 228.325485,124.216217 228.817764,124.493835 
	C228.573166,126.322441 228.525192,128.204681 228.043991,129.968750 
	C226.966187,133.919937 227.978485,137.067032 231.715973,138.702881 
	C235.723434,140.456924 238.903961,138.689484 240.999680,135.159485 
	C242.607468,132.451309 243.703903,129.438736 245.322021,126.737839 
	C246.098862,125.441208 247.556320,124.552338 249.477325,122.757896 
	C249.790680,124.906250 250.000946,125.673409 249.999405,126.440147 
	C249.980957,135.571152 255.668930,140.069260 264.605438,137.855453 
	C268.807861,136.814423 270.323700,134.162903 269.842987,129.732437 
	C267.634064,109.373978 265.610321,88.995071 263.594421,68.616165 
	C262.578461,58.346008 262.791382,47.805183 260.424683,37.868816 
	C258.776154,30.947548 261.257843,26.098293 263.959412,19.182310 
	C269.224487,30.131441 274.046143,39.952934 275.245789,51.460854 
	C273.734497,50.321579 272.223206,49.182301 270.052917,47.546246 
	C270.834930,55.772507 271.491272,63.401638 272.299103,71.014694 
	C273.721741,84.421928 275.410187,97.803238 276.657288,111.226067 
	C277.619690,121.585197 276.920807,131.834747 272.835724,141.621979 
	C270.551514,147.094650 266.938202,150.948624 260.726562,151.344894 
	C254.739761,151.726822 250.031235,149.371933 246.981842,144.041306 
	C246.577744,143.334900 246.057831,142.694748 245.553787,141.969589 
	C236.935959,155.566528 228.258743,155.999695 221.572174,143.306168 
	C212.070999,156.421478 197.344482,157.527954 192.741241,140.914734 
	C187.007843,147.228073 180.851334,152.359512 171.779922,151.358932 
	C163.210342,150.413681 156.749176,145.536331 150.467880,139.991730 
	C146.027817,142.570328 141.774780,145.510117 137.137268,147.594513 
	C132.941711,149.480240 128.407013,151.103241 123.878342,151.647125 
	C115.986977,152.594910 111.805687,148.716782 107.896278,138.088577 
	C100.224213,141.486542 92.680344,145.179276 84.879211,148.209747 
	C68.610222,154.529663 51.901512,157.806213 34.596203,152.919159 
	C21.342293,149.176239 13.468332,137.248962 15.434397,123.529533 
	C16.224861,118.013588 18.519985,112.721718 19.987249,107.289223 
	C20.432800,105.639587 21.148998,103.445862 20.463961,102.208420 
	C16.079294,94.287987 16.472206,85.902061 18.915854,77.914780 
	C21.618223,69.081825 25.766296,60.689156 29.350136,52.132118 
	C29.610359,51.510799 30.402479,51.112247 32.017719,51.104836 
	C31.288862,53.674656 30.534842,56.237656 29.835966,58.815601 
	C27.887449,66.003105 25.933561,73.189476 24.061728,80.397057 
	C23.819254,81.330719 23.751900,82.510483 24.109926,83.363716 
	C25.451822,86.561668 26.205187,91.138130 28.661533,92.475792 
	C32.495281,94.563560 33.729595,89.616989 35.665188,87.139740 
	C36.112534,86.567207 36.599781,86.025841 37.254906,85.249405 
	C39.506588,94.447830 35.059048,103.125366 27.068840,106.015137 
	C26.070248,106.376282 24.841984,107.033638 24.413322,107.897659 
	C19.188097,118.429649 18.259804,130.782761 31.953651,137.711044 
	C41.564281,142.573441 51.899780,142.540802 62.260422,141.579086 
	C78.614113,140.061081 93.485542,133.920959 107.925209,126.528267 
	C108.955444,126.000809 109.981323,125.451843 111.054718,125.028099 
	C111.484894,124.858284 112.038116,125.000160 112.965103,125.000160 
	C113.078552,126.207123 113.232330,127.446236 113.305740,128.690094 
	C113.705154,135.458466 117.308380,138.809494 124.202858,138.798065 
	C130.189499,138.788147 136.240204,136.519684 141.697403,132.139099 
	C136.468719,126.557823 130.868484,122.627808 122.842163,126.689819 
	C122.307228,119.651718 125.893753,114.135315 132.177673,111.857437 
	C144.025146,107.562836 155.909988,107.147141 168.196198,111.722427 
M156.981934,124.462555 
	C157.933350,123.747032 158.884781,123.031509 159.836197,122.315987 
	C159.768875,121.902184 159.701553,121.488380 159.634247,121.074570 
	C155.274521,120.738098 150.914810,120.401627 146.555084,120.065155 
	C146.466156,120.466614 146.377243,120.868073 146.288315,121.269524 
	C148.411911,123.207306 150.535522,125.145081 152.556458,126.989174 
	C154.080322,126.140053 155.227722,125.500710 156.981934,124.462555 
z"/>
<path fill="#0B0B0B" opacity="1.000000" stroke="none" 
	d="
M372.303925,132.361404 
	C375.426849,129.288147 378.293884,126.468735 382.322357,122.507172 
	C382.496155,130.014160 383.217163,135.638809 389.554993,138.552994 
	C393.190247,132.924240 396.446106,126.943840 400.616394,121.689117 
	C404.808533,116.406898 409.392090,111.155785 414.742065,107.140831 
	C421.860962,101.798386 429.921387,101.786789 437.568878,106.895233 
	C444.401306,111.459244 449.074402,117.455338 447.081116,126.067863 
	C446.042328,130.556076 443.282013,134.645859 441.324646,138.861008 
	C451.619995,137.717682 459.669983,130.934906 467.979004,122.847458 
	C468.335663,125.475578 468.545197,126.721909 468.668671,127.976715 
	C469.590942,137.347977 477.540497,141.641861 485.485748,136.483490 
	C488.770874,134.350616 491.163086,130.650604 493.544891,127.361694 
	C497.432343,121.993637 500.436646,115.899445 504.789856,110.974602 
	C512.153198,102.644402 520.294189,104.477951 524.217590,114.832703 
	C526.911255,121.941895 526.963196,129.142975 524.307922,136.289963 
	C522.343201,141.578232 519.520081,143.211761 514.255554,141.251221 
	C508.541992,139.123459 503.089661,136.294266 497.227600,133.636841 
	C495.466644,136.748230 493.772034,140.505051 491.407318,143.777679 
	C484.285645,153.633545 471.066986,154.073227 465.479492,144.774277 
	C464.475220,143.102982 463.924011,141.159470 463.197021,139.421478 
	C440.772003,156.060059 415.780914,157.971375 388.949707,153.057236 
	C387.874664,154.846542 386.493225,157.145813 384.334625,160.738586 
	C384.001038,155.673325 384.549194,151.893799 383.334320,148.808487 
	C382.005310,145.433411 379.046692,142.699997 376.678284,139.526108 
	C374.993683,141.426178 373.307281,143.612549 371.336609,145.502548 
	C361.997406,154.459427 349.135223,153.278198 341.568817,142.730713 
	C339.742310,140.184586 338.247681,137.379623 336.788300,134.595215 
	C333.787781,128.870392 330.166931,127.973091 325.511475,132.660660 
	C322.533966,135.658707 320.060364,139.340378 318.068298,143.091293 
	C315.037109,148.798706 312.846375,154.948639 309.888214,160.699493 
	C305.364197,169.494446 295.705902,170.168777 290.419678,161.848450 
	C282.664062,149.641434 283.099243,136.300125 286.259125,122.801941 
	C286.351990,122.405151 286.876007,122.060265 287.271240,121.801453 
	C287.513672,121.642700 287.893799,121.694237 288.891754,121.559761 
	C288.891754,123.974602 288.714111,126.351982 288.925201,128.694336 
	C289.547485,135.599579 289.911224,142.569580 291.205078,149.356216 
	C291.904816,153.026581 294.210907,156.703644 298.728882,156.989197 
	C303.055847,157.262695 305.214783,153.960205 306.836761,150.615173 
	C309.517212,145.087234 311.320038,139.042496 314.591949,133.917374 
	C318.100250,128.421951 322.382874,123.179962 327.243866,118.858009 
	C331.931702,114.690063 336.815186,116.057899 340.389404,121.266655 
	C341.701569,123.178894 342.717194,125.297386 343.834595,127.340126 
	C350.787994,140.051926 361.014954,141.967255 372.303925,132.361404 
M410.624542,142.211044 
	C421.086700,140.915298 430.409546,136.727173 438.860291,130.630829 
	C439.879669,129.895432 440.490967,127.015388 439.889282,125.858780 
	C434.516022,115.529694 420.850098,112.206383 412.233582,119.888870 
	C405.660858,125.749092 400.461121,133.149216 394.650604,139.864288 
	C394.977112,140.521851 395.303650,141.179413 395.630157,141.836960 
	C400.346771,142.010727 405.063416,142.184479 410.624542,142.211044 
M507.525696,123.960480 
	C510.466156,125.536812 513.406616,127.113144 516.347046,128.689484 
	C516.841553,128.217407 517.335999,127.745331 517.830444,127.273254 
	C516.087402,124.486214 514.798096,121.159843 512.404541,119.145844 
	C511.254486,118.178146 508.018799,119.689125 505.727600,120.077621 
	C506.154083,121.199272 506.580597,122.320930 507.525696,123.960480 
z"/>
<path fill="#101010" opacity="1.000000" stroke="none" 
	d="
M367.675415,79.654930 
	C365.021393,81.031883 362.706146,82.238205 359.451996,83.933708 
	C361.882080,85.308884 363.507660,86.259338 365.161316,87.158081 
	C368.388062,88.911713 368.578583,91.812950 366.901093,94.309410 
	C366.349762,95.129875 362.995575,94.826103 361.400909,94.052048 
	C355.213501,91.048721 353.786774,83.824532 359.028076,78.231705 
	C362.405548,74.627708 367.090881,71.730499 371.736908,69.919662 
	C398.962891,59.308144 426.317902,49.024014 453.698090,38.813644 
	C465.203186,34.523281 476.876465,30.683941 489.107880,26.418228 
	C488.624115,31.539223 486.930847,34.677525 482.157074,36.386772 
	C454.797729,46.182724 427.463806,56.054802 400.229187,66.191193 
	C389.348877,70.240723 378.744263,75.031151 367.675415,79.654930 
z"/>
<path fill="#0C0C0C" opacity="1.000000" stroke="none" 
	d="
M290.877991,89.358032 
	C289.251465,73.197014 288.115234,57.427532 285.869141,41.817753 
	C284.796875,34.365791 284.395233,27.585436 289.322510,20.427805 
	C294.008881,30.717691 299.128571,40.291302 301.303253,52.606777 
	C298.591766,50.656849 297.085083,49.573349 294.704193,47.861153 
	C296.012787,59.441883 297.288879,70.230621 298.437714,81.032898 
	C299.791412,93.761551 301.739807,106.483414 302.074860,119.243813 
	C302.293060,127.554260 300.198395,135.944305 298.896515,144.260590 
	C298.621002,146.020523 297.286682,147.614716 296.098633,149.959381 
	C294.310425,129.221161 292.611481,109.518150 290.877991,89.358032 
z"/>
<path fill="#131313" opacity="1.000000" stroke="none" 
	d="
M74.561615,61.459442 
	C75.800453,63.967937 77.628227,66.259514 77.525291,68.460800 
	C77.369011,71.803261 74.535706,73.292603 71.194672,73.683617 
	C69.408012,73.892723 67.611183,74.417809 65.935623,75.090797 
	C62.254208,76.569412 60.693886,78.636040 62.144279,83.152702 
	C65.814957,94.583534 68.746223,106.239281 66.206970,118.439331 
	C66.031204,119.283836 65.599182,120.075005 64.222496,120.811562 
	C64.045212,117.135872 64.219910,113.401237 63.616386,109.796921 
	C62.410049,102.592514 60.781071,95.458740 59.319431,88.297272 
	C58.068092,82.166191 57.656837,76.362480 59.687286,69.972023 
	C61.027164,65.755005 61.989273,61.634907 63.941299,57.498684 
	C65.111511,55.019081 62.787086,50.564934 61.366463,47.287296 
	C60.154289,44.490601 60.110439,40.345226 54.772682,40.828159 
	C53.066196,40.982555 49.799007,37.883575 49.517239,35.943310 
	C49.221737,33.908531 51.155701,30.601749 53.062626,29.518377 
	C54.403191,28.756771 58.179913,30.133133 59.379360,31.697117 
	C62.363682,35.588428 64.496353,40.132889 67.090729,44.622311 
	C67.697731,42.099895 68.243118,39.328056 69.047417,36.633492 
	C69.850883,33.941677 70.411240,30.956476 72.011345,28.788700 
	C73.456024,26.831493 76.431747,24.337772 78.256035,24.672926 
	C82.102257,25.379545 83.343994,29.078968 82.858200,32.917068 
	C82.680954,34.317532 81.922447,35.644421 80.063133,38.002716 
	C79.566765,36.979240 79.272415,35.770805 78.536316,34.966827 
	C76.288750,32.512012 74.386276,33.054043 73.537415,36.154537 
	C71.660271,43.010902 69.977631,49.920525 68.228813,56.756985 
	C70.324165,58.294674 72.305092,59.748386 74.561615,61.459442 
z"/>
<path fill="#121212" opacity="1.000000" stroke="none" 
	d="
M219.867584,26.946793 
	C227.079956,24.370329 233.921021,21.913065 241.397751,19.227472 
	C240.907379,23.594673 239.817535,26.562775 236.067154,27.992491 
	C212.785339,36.867970 189.512375,45.766663 166.230591,54.642200 
	C165.629379,54.871391 164.960754,54.923717 163.886856,55.150925 
	C163.636932,50.720581 165.033295,47.774891 169.183350,46.206707 
	C185.968536,39.864090 202.727570,33.452274 219.867584,26.946793 
z"/>
<path fill="#121212" opacity="1.000000" stroke="none" 
	d="
M513.979797,43.077927 
	C518.061157,41.621796 521.770264,40.293331 525.992981,38.780899 
	C525.586121,43.365887 524.340515,46.116600 519.963989,47.731411 
	C499.389435,55.322857 478.950500,63.281784 458.461304,71.104797 
	C457.893097,71.321747 457.304535,71.485367 456.206787,71.842674 
	C456.848022,67.180405 458.506989,64.137711 462.804382,62.530193 
	C479.773865,56.182468 496.678711,49.661987 513.979797,43.077927 
z"/>
<path fill="#141414" opacity="1.000000" stroke="none" 
	d="
M320.096344,50.170944 
	C325.113525,46.663181 329.828094,43.353794 334.585449,40.014362 
	C327.531097,31.814114 327.495117,26.894047 334.362854,22.058537 
	C335.967834,20.928499 338.894745,19.769697 340.122345,20.488247 
	C341.688660,21.405052 342.524994,24.135729 342.963348,26.233484 
	C343.313141,27.907700 342.456329,29.800617 342.402374,31.604454 
	C342.366699,32.795437 342.380829,34.581646 343.098877,35.104980 
	C347.723328,38.475430 344.621216,41.323269 342.862000,44.635910 
	C341.332794,43.589745 340.035339,42.702141 338.588776,41.712528 
	C329.404205,51.251312 319.407318,59.087910 305.346649,59.458073 
	C310.162354,56.428486 314.978058,53.398903 320.096344,50.170944 
z"/>
<path fill="#131313" opacity="1.000000" stroke="none" 
	d="
M412.637451,170.072647 
	C414.859802,169.637405 416.981262,169.579239 418.447754,168.569687 
	C421.421417,166.522522 423.775421,163.455048 426.910583,161.810211 
	C428.641357,160.902191 432.286285,161.198456 433.516113,162.462296 
	C434.764008,163.744644 434.893372,167.193863 434.130280,169.156616 
	C431.637451,175.568451 421.539520,180.722702 415.005249,178.327972 
	C407.309631,175.507614 402.415649,179.061890 397.211975,183.636810 
	C393.138336,187.218292 388.632050,190.320114 384.207550,193.480408 
	C383.245758,194.167389 381.813171,194.195236 380.572784,194.533371 
	C380.419769,193.850601 380.198059,193.385941 380.309509,193.283401 
	C387.141083,186.998459 393.737640,180.414032 400.980927,174.641541 
	C404.027191,172.213852 408.445557,171.507889 412.637451,170.072647 
M424.035889,171.254532 
	C426.354492,170.357025 428.673096,169.459518 431.515045,168.359421 
	C426.812927,165.517868 423.364594,166.862808 420.908051,171.664703 
	C421.241821,171.664703 421.570282,171.692474 421.892120,171.658203 
	C422.377930,171.606476 422.859161,171.511475 424.035889,171.254532 
z"/>
<path fill="#121212" opacity="1.000000" stroke="none" 
	d="
M401.440338,23.523468 
	C404.622131,27.354034 404.541962,30.958305 401.838013,34.962353 
	C400.175751,33.478058 398.655975,32.120998 395.820282,29.588903 
	C392.928192,39.469730 390.324982,48.363651 387.721741,57.257568 
	C387.240356,57.174557 386.758972,57.091545 386.277588,57.008530 
	C384.574768,52.248566 382.931122,47.466221 381.144440,42.737946 
	C380.230957,40.320377 379.466858,38.207157 375.680420,38.611000 
	C373.985626,38.791759 370.556335,35.731174 370.386627,33.910992 
	C370.171906,31.608566 372.075287,28.661951 373.912720,26.855122 
	C374.563049,26.215611 378.502502,27.520678 379.557190,28.955013 
	C382.730072,33.269966 385.221954,38.085686 387.571686,42.022797 
	C389.191467,37.302795 390.911682,31.427490 393.246765,25.807671 
	C394.658661,22.409637 397.354248,20.458158 401.440338,23.523468 
z"/>
<path fill="#121212" opacity="1.000000" stroke="none" 
	d="
M507.203003,77.745300 
	C507.722656,79.285431 508.146942,80.457832 508.735931,82.085449 
	C510.239777,76.869202 511.330902,72.062309 513.020142,67.475716 
	C515.297913,61.291199 517.839600,59.555405 521.245911,61.054859 
	C525.081909,62.743439 525.902649,68.040596 523.092590,73.057716 
	C522.790527,73.010048 522.370911,73.074310 522.188049,72.895927 
	C517.527893,68.348869 516.174072,68.734680 514.488281,75.218124 
	C513.032227,80.817932 511.705872,86.451973 510.197083,92.037094 
	C509.882019,93.203468 509.019196,94.221870 507.923309,96.172722 
	C505.834259,90.545990 504.179169,85.827187 502.320587,81.189957 
	C501.361816,78.797928 500.500244,76.674644 496.738373,76.981110 
	C494.969208,77.125237 491.643372,74.165627 491.363617,72.267509 
	C491.059418,70.203598 492.970245,66.946304 494.882019,65.734726 
	C496.107758,64.957924 499.774719,66.318237 501.121521,67.819908 
	C503.594574,70.577370 505.162415,74.146698 507.203003,77.745300 
z"/>
<path fill="#0E0E0E" opacity="1.000000" stroke="none" 
	d="
M335.485504,81.575272 
	C336.106995,81.890167 336.414642,82.021233 336.697327,82.193329 
	C347.317505,88.658676 347.317169,88.659203 339.757477,99.812935 
	C336.374969,97.628922 332.963379,95.426117 329.144379,92.960251 
	C327.600464,95.585114 326.064026,98.197235 324.329773,101.145729 
	C320.750763,98.661949 317.364532,96.577637 314.348480,94.051384 
	C313.482330,93.325874 313.082947,91.095177 313.517456,89.953430 
	C314.563385,87.205200 316.229401,84.692970 318.070099,81.303215 
	C321.803558,83.712639 325.199890,85.904495 328.566010,88.076851 
	C330.706360,85.913048 332.933197,83.661812 335.485504,81.575272 
z"/>
<path fill="#0E0E0E" opacity="1.000000" stroke="none" 
	d="
M222.027771,96.859558 
	C223.426147,95.747704 225.544189,94.904427 226.079330,93.470428 
	C227.357956,90.044197 229.159439,90.781921 231.465683,91.959877 
	C241.040741,96.850502 241.621674,100.672951 233.627243,109.226891 
	C230.465515,107.117668 227.215805,104.949753 223.656387,102.575211 
	C222.018234,105.262810 220.513641,107.731285 218.693756,110.717056 
	C215.202530,108.305717 211.965546,106.125031 208.804337,103.839523 
	C208.182037,103.389603 207.601746,102.592125 207.434662,101.856659 
	C206.949646,99.721642 211.757126,92.921600 214.758759,92.407166 
	C217.548248,94.115791 219.788010,95.487679 222.027771,96.859558 
z"/>
<path fill="#111111" opacity="1.000000" stroke="none" 
	d="
M127.405334,47.008507 
	C125.789192,47.061352 124.549614,47.061352 123.310043,47.061352 
	C123.201096,46.787434 123.092155,46.513515 122.983215,46.239597 
	C128.422913,43.049950 133.862625,39.860298 139.302322,36.670647 
	C139.225082,36.288719 139.147842,35.906788 139.070602,35.524860 
	C133.564087,35.524860 128.057571,35.524860 122.501427,35.524860 
	C123.141800,28.297382 125.952057,24.976847 132.170364,24.611362 
	C136.096252,24.380615 140.141571,24.852018 144.027588,25.576019 
	C150.255264,26.736296 150.624298,28.392080 147.381760,34.049171 
	C142.975601,41.736359 136.319931,45.699039 127.405334,47.008507 
z"/>
<path fill="#101010" opacity="1.000000" stroke="none" 
	d="
M137.178284,94.040039 
	C142.374939,90.348740 147.645355,87.023689 152.915771,83.698639 
	C152.908005,83.362328 152.900238,83.026016 152.892471,82.689705 
	C147.343750,82.689705 141.795044,82.689705 136.096573,82.689705 
	C137.721695,74.072182 141.224319,70.943176 148.638824,71.267151 
	C152.099976,71.418388 155.523376,72.298912 158.980667,72.706467 
	C163.771576,73.271255 163.691208,75.933258 162.028183,79.386436 
	C157.027481,89.770088 148.424637,94.206329 137.178284,94.040039 
z"/>
<path fill="#141414" opacity="1.000000" stroke="none" 
	d="
M238.612793,166.014694 
	C239.386978,163.894852 239.921707,162.115082 240.456436,160.335312 
	C241.156708,160.470535 241.856964,160.605759 242.557236,160.740982 
	C242.003662,163.874939 242.020325,167.269012 240.741699,170.072250 
	C239.367325,173.085388 236.294861,173.034698 233.368942,171.699509 
	C232.894028,171.482788 231.950531,171.537491 231.624466,171.865372 
	C227.829910,175.680710 223.583298,174.316330 219.090988,173.509018 
	C213.559860,172.515030 209.414536,175.698715 205.326828,179.118759 
	C200.718842,182.974091 195.672424,186.310318 190.751266,189.779480 
	C190.198853,190.168915 189.221588,189.955627 187.007843,190.143524 
	C189.847031,187.703400 191.802475,186.127319 193.638733,184.422806 
	C197.405350,180.926468 201.169739,177.423691 204.822891,173.810150 
	C210.620438,168.075455 216.998627,164.774200 225.486267,167.438217 
	C226.869812,167.872452 229.091995,166.626724 230.532440,165.602982 
	C231.917419,164.618607 232.791183,162.914932 233.522354,161.991257 
	C235.331238,163.618378 236.852280,164.986572 238.612793,166.014694 
z"/>
<path fill="#161616" opacity="1.000000" stroke="none" 
	d="
M512.612671,166.325989 
	C511.387573,165.702866 510.508270,165.233398 509.461365,164.674423 
	C501.116486,178.117111 488.225098,182.531601 473.599884,183.443710 
	C473.400452,183.053177 473.201019,182.662628 473.001556,182.272095 
	C475.863800,180.865005 478.726501,179.458847 481.588165,178.050613 
	C486.951080,175.411545 492.559967,173.164108 497.595703,170.003586 
	C501.422058,167.602066 504.546692,164.068573 507.918671,160.968170 
	C508.633728,160.310745 509.001282,159.291275 509.642548,158.534897 
	C511.810303,155.977982 513.422852,152.051407 517.857361,153.948456 
	C520.807312,155.210403 521.479858,162.179169 519.414551,165.855576 
	C517.510132,169.245514 515.180359,167.032883 512.612671,166.325989 
z"/>
<path fill="#151515" opacity="1.000000" stroke="none" 
	d="
M151.199173,162.118469 
	C152.017746,161.375443 152.836334,160.632431 153.848679,159.713547 
	C155.701675,163.594086 153.666611,165.946411 151.331833,168.186050 
	C148.697601,170.712952 145.780441,172.997894 143.454880,175.779739 
	C140.736603,179.031357 141.492142,181.083527 145.750824,181.191086 
	C150.620590,181.314087 155.518799,180.311264 160.238602,179.815094 
	C158.554352,186.107071 144.834579,190.546707 140.391403,185.472916 
	C138.863937,183.728668 138.712341,180.255234 138.935104,177.657761 
	C139.136871,175.305145 140.704147,173.069656 141.705276,170.697327 
	C137.518677,165.012299 138.337524,160.323380 144.647507,156.093185 
	C145.868591,155.274582 147.654938,155.299179 149.180527,154.934814 
	C149.447327,156.316452 149.714142,157.698105 149.660522,159.678467 
	C148.953583,160.541458 148.591583,160.980621 148.176208,161.038834 
	C146.611725,161.258072 145.029892,161.353302 143.454544,161.494965 
	C143.660843,162.335220 143.756805,163.846802 144.092117,163.901901 
	C145.723877,164.170074 147.455215,164.255142 149.077560,163.976166 
	C149.867874,163.840286 150.497055,162.767288 151.199173,162.118469 
z"/>
<path fill="#131313" opacity="1.000000" stroke="none" 
	d="
M326.064056,168.979355 
	C322.253326,167.137817 321.458099,164.153168 322.766449,160.347702 
	C323.034760,159.567352 323.238251,158.760818 323.417236,157.954269 
	C325.168182,150.063309 327.810883,148.970734 334.692810,153.510254 
	C339.101654,156.418488 341.950806,160.188553 341.280426,165.955429 
	C340.810577,169.997040 338.739532,171.505814 334.890900,170.966019 
	C332.602722,170.645126 330.321930,170.271408 327.607788,169.464874 
	C326.806519,168.998642 326.435272,168.988998 326.064056,168.979355 
z"/>
<path fill="#191919" opacity="1.000000" stroke="none" 
	d="
M214.735809,46.886753 
	C215.638657,46.568180 216.980774,46.454262 217.041626,46.682262 
	C217.794312,49.502697 218.528931,52.349388 218.932434,55.236252 
	C219.460236,59.012417 221.115662,57.955971 223.205276,56.376854 
	C220.990097,52.417484 219.790863,48.428635 224.446533,44.274387 
	C225.294250,49.174118 226.623840,54.060329 226.761917,58.979977 
	C226.820389,61.063229 224.801910,63.909843 222.906799,65.076515 
	C221.782913,65.768402 219.058884,63.861069 216.499298,62.917919 
	C216.426682,63.005779 215.795151,63.921288 215.015900,64.686302 
	C211.785919,67.857277 208.008011,66.914932 206.703842,62.515076 
	C205.678772,59.056866 204.452316,55.543411 204.258698,52.002903 
	C204.164001,50.271534 206.217606,48.422676 207.298843,46.626995 
	C207.939407,46.810715 208.579971,46.994431 209.220535,47.178150 
	C209.220535,50.008926 208.900269,52.891159 209.343674,55.650688 
	C209.599380,57.242172 211.088913,58.635399 212.023102,60.117859 
	C213.023682,58.603546 214.657715,57.176964 214.882324,55.555187 
	C215.256592,52.852692 214.728058,50.025169 214.735809,46.886753 
z"/>
<path fill="#181818" opacity="1.000000" stroke="none" 
	d="
M399.451050,97.219757 
	C397.120972,98.539139 394.905762,100.632957 393.083344,100.333817 
	C391.601440,100.090576 390.256989,97.112877 389.451813,95.106888 
	C388.358948,92.384056 387.238495,89.421890 387.283386,86.580605 
	C387.313446,84.678162 389.346863,82.807373 390.483826,80.922424 
	C391.045959,81.145859 391.608063,81.369293 392.170166,81.592728 
	C392.170166,84.006104 391.813141,86.491638 392.281799,88.810287 
	C392.664703,90.704552 393.947418,93.859482 394.980133,93.920166 
	C398.667419,94.136879 398.002502,90.856430 398.049896,88.449287 
	C398.109283,85.431694 398.064178,82.412056 398.064178,78.427490 
	C403.696350,82.894081 399.580750,90.841080 406.491974,94.230423 
	C407.430298,88.653946 402.164734,83.625313 406.897583,77.776184 
	C408.197754,82.570961 410.015167,86.555206 410.124329,90.585716 
	C410.203308,93.503151 408.437836,96.812805 406.556854,99.212166 
	C406.055878,99.851166 402.103455,97.784393 399.451050,97.219757 
z"/>
<path fill="#151515" opacity="1.000000" stroke="none" 
	d="
M326.328308,169.344421 
	C326.435272,168.988998 326.806519,168.998642 327.355591,169.056458 
	C326.184143,175.735046 320.921265,179.015274 314.341980,182.707397 
	C324.803345,185.074539 332.720734,181.468338 341.581421,178.446838 
	C340.960510,180.027390 340.858948,181.225754 340.207367,181.799286 
	C333.678040,187.546432 326.027924,190.475510 317.319366,189.840134 
	C311.376648,189.406540 309.166321,185.044235 313.019989,180.596191 
	C315.887970,177.285843 320.301575,175.334488 323.938293,172.657593 
	C324.981262,171.889862 325.716309,170.703751 326.328308,169.344421 
z"/>
<path fill="#0E0E0E" opacity="1.000000" stroke="none" 
	d="
M64.235031,182.690308 
	C63.003471,181.808212 62.107777,181.049606 61.095058,180.511108 
	C57.830593,178.775269 57.035725,176.573624 59.265995,173.361893 
	C60.645809,171.374863 61.680504,169.148163 62.825329,167.108856 
	C76.188560,171.562042 77.606628,175.705978 69.167999,186.146545 
	C67.646797,185.089371 66.082062,184.001953 64.235031,182.690308 
z"/>
<path fill="#0E0E0E" opacity="1.000000" stroke="none" 
	d="
M469.031342,94.058746 
	C472.176117,96.123268 472.813812,98.286804 470.667786,101.254684 
	C469.155060,103.346718 468.104095,105.772621 466.663208,108.382225 
	C463.028290,105.913628 459.646637,103.875359 456.623016,101.399765 
	C455.761566,100.694435 455.334595,98.487411 455.760559,97.370186 
	C456.859406,94.488083 458.546265,91.830185 460.310730,88.491379 
	C463.282623,90.408501 465.989349,92.154549 469.031342,94.058746 
z"/>
<path fill="#0E0E0E" opacity="1.000000" stroke="none" 
	d="
M214.955582,89.247673 
	C209.553726,85.290977 209.685867,84.004379 216.385254,75.327438 
	C228.505600,79.222511 229.914780,82.778664 222.746613,92.912300 
	C219.889511,92.055389 217.422546,90.651527 214.955582,89.247673 
z"/>
<path fill="#1A1A1A" opacity="1.000000" stroke="none" 
	d="
M104.476418,158.497192 
	C105.323509,157.383789 105.978874,156.580521 106.634239,155.777252 
	C106.949928,155.935608 107.265610,156.093979 107.581299,156.252335 
	C106.702667,158.824722 105.643967,161.352417 104.991585,163.980942 
	C104.199745,167.171341 103.474747,170.430817 103.285149,173.693176 
	C103.205864,175.057388 104.578506,176.505981 105.291008,177.916199 
	C106.397026,177.098953 107.525162,176.309372 108.598740,175.451523 
	C109.059967,175.082993 109.408005,174.572784 110.347481,173.524231 
	C111.260834,178.372299 110.116837,182.003586 107.378807,184.891556 
	C105.054512,187.343155 100.504959,185.980225 100.225731,182.167313 
	C99.803452,176.401184 100.856583,170.487946 101.669762,164.691513 
	C101.956436,162.648041 103.380135,160.764099 104.476418,158.497192 
z"/>
<path fill="#1A1A1A" opacity="1.000000" stroke="none" 
	d="
M361.495758,172.548965 
	C363.525848,166.646545 365.453461,161.161209 367.381042,155.675888 
	C368.028931,155.878494 368.676819,156.081085 369.324707,156.283691 
	C368.809845,158.172440 368.303009,160.063431 367.778290,161.949432 
	C366.895050,165.124069 365.566681,168.255524 365.268799,171.482956 
	C365.082031,173.506653 366.436859,175.672638 367.099976,177.774780 
	C368.767914,176.777786 370.435883,175.780777 372.359894,174.630722 
	C373.631653,178.247330 372.165436,181.630188 369.748505,184.520950 
	C367.582184,187.111908 363.614807,186.469177 362.588715,183.162994 
	C361.591461,179.949844 361.745056,176.379532 361.495758,172.548965 
z"/>
<path fill="#1E1E1E" opacity="1.000000" stroke="none" 
	d="
M104.612991,107.705261 
	C100.234413,110.261635 97.959671,108.297951 96.976006,104.479683 
	C94.426743,94.584274 98.810219,86.400871 103.766006,78.346878 
	C103.777214,85.917938 96.613068,93.080429 102.729401,101.833626 
	C104.442924,99.955307 105.680298,98.598938 106.917664,97.242569 
	C107.377632,97.377495 107.837601,97.512413 108.297562,97.647339 
	C107.167473,100.919228 106.037384,104.191124 104.612991,107.705261 
z"/>
<path fill="#181818" opacity="1.000000" stroke="none" 
	d="
M431.235535,90.919281 
	C430.283844,86.414474 428.725250,81.970352 429.306946,77.826691 
	C430.034332,72.645271 432.521454,67.710876 434.248901,62.669838 
	C434.889160,62.845837 435.529419,63.021839 436.169678,63.197838 
	C435.816406,64.765831 435.523376,66.350418 435.096893,67.898224 
	C434.304016,70.775665 432.926392,73.601295 432.752350,76.506020 
	C432.608124,78.912788 433.844879,81.402306 434.469818,83.855171 
	C436.277161,82.844391 438.084534,81.833611 439.785187,80.882484 
	C440.829681,88.513008 437.194580,93.228500 431.235535,90.919281 
z"/>
<path fill="#1A1A1A" opacity="1.000000" stroke="none" 
	d="
M178.322815,81.671562 
	C180.385406,75.984596 182.309067,70.709564 184.232727,65.434540 
	C184.809784,65.636162 185.386856,65.837784 185.963928,66.039406 
	C184.945343,69.456276 183.856674,72.854362 182.934525,76.297058 
	C182.382568,78.357681 181.615097,80.534615 181.814392,82.574272 
	C182.020248,84.681099 183.279602,86.684998 184.078094,88.733917 
	C185.670578,87.568153 187.263077,86.402405 188.716049,85.338776 
	C189.919037,88.485146 188.813736,93.597588 185.874481,95.608803 
	C182.763062,97.737801 179.998138,96.396980 179.171494,93.304138 
	C178.216522,89.731186 178.460510,85.837776 178.322815,81.671562 
z"/>
<path fill="#1A1A1A" opacity="1.000000" stroke="none" 
	d="
M265.666199,179.604675 
	C262.685730,182.255753 259.938385,184.632629 257.191040,187.009491 
	C256.845917,186.654999 256.500763,186.300491 256.155640,185.945984 
	C258.459900,180.385239 265.480255,177.442993 265.377533,169.648880 
	C263.113892,170.220215 261.222870,170.697479 257.976593,171.516800 
	C259.444519,168.554169 260.079285,165.868423 261.762390,164.328644 
	C263.066376,163.135742 265.918396,162.656326 267.633362,163.221619 
	C268.858856,163.625565 270.292267,166.504181 269.972656,167.897842 
	C269.074554,171.814133 267.317566,175.533478 265.666199,179.604675 
z"/>
<path fill="#181818" opacity="1.000000" stroke="none" 
	d="
M453.356262,168.435272 
	C454.195435,166.245483 454.890076,164.440491 455.584717,162.635483 
	C456.078094,162.769928 456.571472,162.904373 457.064819,163.038803 
	C456.796417,165.064392 456.461029,167.084045 456.280548,169.117432 
	C456.134399,170.764008 455.893250,172.485031 456.218536,174.065109 
	C456.493439,175.400711 457.520477,176.581497 458.214691,177.830780 
	C459.356354,177.072372 460.579529,176.406967 461.601166,175.511627 
	C462.034088,175.132172 462.043854,174.269836 462.229919,173.677933 
	C463.317200,174.721649 463.712280,174.923279 463.714020,175.128311 
	C463.770142,181.635468 461.166351,186.184097 457.510345,186.036026 
	C453.918121,185.890549 451.446777,180.868713 452.062286,174.673492 
	C452.257996,172.703720 452.818237,170.770172 453.356262,168.435272 
z"/>
<path fill="#DADADA" opacity="1.000000" stroke="none" 
	d="
M150.914139,161.929657 
	C150.497055,162.767288 149.867874,163.840286 149.077560,163.976166 
	C147.455215,164.255142 145.723877,164.170074 144.092117,163.901901 
	C143.756805,163.846802 143.660843,162.335220 143.454544,161.494965 
	C145.029892,161.353302 146.611725,161.258072 148.176208,161.038834 
	C148.591583,160.980621 148.953583,160.541458 149.629486,160.063293 
	C150.155624,160.479874 150.392365,161.110367 150.914139,161.929657 
z"/>
<path fill="#DADADA" opacity="1.000000" stroke="none" 
	d="
M214.961456,89.616287 
	C217.422546,90.651527 219.889511,92.055389 222.691589,93.259308 
	C222.710327,94.104500 222.393936,95.149612 222.052658,96.527145 
	C219.788010,95.487679 217.548248,94.115791 215.133545,92.468323 
	C214.961502,91.456810 214.964417,90.720856 214.961456,89.616287 
z"/>
<path fill="#DADADA" opacity="1.000000" stroke="none" 
	d="
M156.678528,124.661957 
	C155.227722,125.500710 154.080322,126.140053 152.556458,126.989174 
	C150.535522,125.145081 148.411911,123.207306 146.288315,121.269524 
	C146.377243,120.868073 146.466156,120.466614 146.555084,120.065155 
	C150.914810,120.401627 155.274521,120.738098 159.634247,121.074570 
	C159.701553,121.488380 159.768875,121.902184 159.836197,122.315987 
	C158.884781,123.031509 157.933350,123.747032 156.678528,124.661957 
z"/>
<path fill="#F7F6F7" opacity="1.000000" stroke="none" 
	d="
M410.202271,142.284637 
	C405.063416,142.184479 400.346771,142.010727 395.630157,141.836960 
	C395.303650,141.179413 394.977112,140.521851 394.650604,139.864288 
	C400.461121,133.149216 405.660858,125.749092 412.233582,119.888870 
	C420.850098,112.206383 434.516022,115.529694 439.889282,125.858780 
	C440.490967,127.015388 439.879669,129.895432 438.860291,130.630829 
	C430.409546,136.727173 421.086700,140.915298 410.202271,142.284637 
z"/>
<path fill="#E6E5E6" opacity="1.000000" stroke="none" 
	d="
M507.266418,123.701538 
	C506.580597,122.320930 506.154083,121.199272 505.727600,120.077621 
	C508.018799,119.689125 511.254486,118.178146 512.404541,119.145844 
	C514.798096,121.159843 516.087402,124.486214 517.830444,127.273254 
	C517.335999,127.745331 516.841553,128.217407 516.347046,128.689484 
	C513.406616,127.113144 510.466156,125.536812 507.266418,123.701538 
z"/>
<path fill="#CECECE" opacity="1.000000" stroke="none" 
	d="
M423.689087,171.344696 
	C422.859161,171.511475 422.377930,171.606476 421.892120,171.658203 
	C421.570282,171.692474 421.241821,171.664703 420.908051,171.664703 
	C423.364594,166.862808 426.812927,165.517868 431.515045,168.359421 
	C428.673096,169.459518 426.354492,170.357025 423.689087,171.344696 
z"/>
</svg>